<svg xmlns="http://www.w3.org/2000/svg" xmlns:xlink="http://www.w3.org/1999/xlink" viewBox="0 0 42.52 51.99"><defs><linearGradient id="f8a60930-fcaa-4364-bec3-163f0ca19d17" x1="0.36" y1="18.5" x2="42.52" y2="18.5" gradientUnits="userSpaceOnUse"><stop offset="0" stop-color="#d1d3d4"/><stop offset="0.24" stop-color="#707070"/><stop offset="0.53" stop-color="#58595b"/><stop offset="0.64" stop-color="#4a4b4c"/><stop offset="0.83" stop-color="#252526"/><stop offset="1"/></linearGradient></defs><g id="b037d726-6939-42d1-bd75-7b8d24f7636b" data-name="Layer 2"><g id="ea18e5f7-7750-4241-9874-3d4645eb480b" data-name="Layer 1"><path d="M16.05,27.82V12.73H4.18V14c0,5.64,0,11.29,0,16.93A3.09,3.09,0,0,1,3.6,32.6C2.63,34,1.55,35.4.36,37V9H16V.17A5.19,5.19,0,0,1,16.85,0c4.49,0,9-.07,13.45.09A12.38,12.38,0,0,1,39.2,4a11.56,11.56,0,0,1,2.54,12.37,11.08,11.08,0,0,1-9.41,7.74,1.85,1.85,0,0,1-2.22-.95,16.32,16.32,0,0,0-1.35-1.87c1.09-.22,2.1-.37,3.07-.64,6.16-1.77,8.67-8.61,5-13.54A8.77,8.77,0,0,0,29.9,3.6c-3.24-.14-6.49,0-9.92,0,0,2.21,0,4.39,0,6.58,0,.27.54.58.87.79a11.47,11.47,0,0,1,5.73,11.14,11.26,11.26,0,0,1-6.87,10.08,17.88,17.88,0,0,1-4,1,1.07,1.07,0,0,1-.88-.34c-.63-.77-1.2-1.6-1.88-2.53,4.79-.73,8.74-2.46,9.57-7.76A8.06,8.06,0,0,0,20,15c0,2.33,0,4.36,0,6.38a3.81,3.81,0,0,1-.9,2.76c-1,1.19-1.88,2.5-2.81,3.76Z" fill="url(#f8a60930-fcaa-4364-bec3-163f0ca19d17)"/><path d="M19.86,43.12H16.19a2.49,2.49,0,0,1,.41-2.45c1.08-1.35,2.08-2.77,3.26-4.35Z" fill="#f15b58"/><path d="M4.14,45.17V52H0a12.94,12.94,0,0,1,.94-2.45C1.86,48.13,2.93,46.81,4.14,45.17Z" fill="#f15b58"/></g></g></svg>